<svg data-v-423bf9ae="" xmlns="http://www.w3.org/2000/svg" viewBox="0 0 231.02663301717973 60" class="font"><!----><!----><!----><g data-v-423bf9ae="" id="84ef47a0-eee4-4a5e-b126-849fc03c44a6" fill="black" transform="matrix(5.069708475420867,0,0,5.069708475420867,-2.12928091902414,-7.401775044345655)"><path d="M4.19 3.05L4.19 3.05L4.19 3.05Q4.62 3.05 5.05 3.10L5.05 3.10L5.05 3.10Q5.49 3.15 5.85 3.21L5.85 3.21L5.85 3.21Q6.27 3.28 6.66 3.36L6.66 3.36L6.66 5.31L6.66 5.31Q6.36 5.26 5.96 5.19L5.96 5.19L5.96 5.19Q5.57 5.12 5.17 5.10L5.17 5.10L5.17 5.10Q4.77 5.07 4.40 5.11L4.40 5.11L4.40 5.11Q4.02 5.15 3.72 5.35L3.72 5.35L3.72 5.35Q3.43 5.54 3.25 5.91L3.25 5.91L3.25 5.91Q3.07 6.27 3.07 6.89L3.07 6.89L3.07 6.89Q3.07 7.53 3.24 7.92L3.24 7.92L3.24 7.92Q3.42 8.32 3.70 8.52L3.70 8.52L3.70 8.52Q3.99 8.72 4.37 8.77L4.37 8.77L4.37 8.77Q4.75 8.82 5.15 8.79L5.15 8.79L5.15 8.79Q5.54 8.75 5.94 8.66L5.94 8.66L5.94 8.66Q6.33 8.57 6.66 8.50L6.66 8.50L6.66 10.30L6.66 10.30Q6.27 10.42 5.85 10.49L5.85 10.49L5.85 10.49Q5.49 10.56 5.05 10.61L5.05 10.61L5.05 10.61Q4.61 10.65 4.17 10.65L4.17 10.65L4.17 10.65Q3.63 10.65 2.97 10.49L2.97 10.49L2.97 10.49Q2.31 10.32 1.74 9.90L1.74 9.90L1.74 9.90Q1.18 9.48 0.80 8.75L0.80 8.75L0.80 8.75Q0.42 8.02 0.42 6.89L0.42 6.89L0.42 6.89Q0.42 5.75 0.80 5.02L0.80 5.02L0.80 5.02Q1.18 4.28 1.74 3.84L1.74 3.84L1.74 3.84Q2.31 3.40 2.97 3.23L2.97 3.23L2.97 3.23Q3.63 3.05 4.19 3.05ZM12.94 3.04L12.81 5.22L12.81 5.22Q12.00 5.04 11.49 5.24L11.49 5.24L11.49 5.24Q10.99 5.43 10.70 5.81L10.70 5.81L10.70 5.81Q10.42 6.19 10.31 6.64L10.31 6.64L10.31 6.64Q10.21 7.10 10.21 7.41L10.21 7.41L10.21 10.50L7.71 10.50L7.71 3.22L9.63 3.22L10.01 4.55L10.01 4.55Q10.01 4.55 10.14 4.31L10.14 4.31L10.14 4.31Q10.26 4.07 10.60 3.79L10.60 3.79L10.60 3.79Q10.93 3.51 11.50 3.28L11.50 3.28L11.50 3.28Q12.07 3.04 12.94 3.04L12.94 3.04ZM18.90 3.22L21.43 3.22L21.43 3.22Q20.68 5.21 20.10 6.69L20.10 6.69L20.10 6.69Q19.53 8.18 19.07 9.25L19.07 9.25L19.07 9.25Q18.61 10.32 18.25 11.03L18.25 11.03L18.25 11.03Q17.89 11.73 17.56 12.17L17.56 12.17L17.56 12.17Q17.22 12.61 16.90 12.84L16.90 12.84L16.90 12.84Q16.58 13.06 16.20 13.17L16.20 13.17L16.20 13.17Q15.96 13.24 15.62 13.27L15.62 13.27L15.62 13.27Q15.27 13.29 14.95 13.29L14.95 13.29L14.95 13.29Q14.62 13.30 14.39 13.29L14.39 13.29L14.39 13.29Q14.17 13.29 14.17 13.29L14.17 13.29L14.18 11.37L14.97 11.35L14.97 11.35Q15.36 11.35 15.58 11.20L15.58 11.20L15.58 11.20Q15.81 11.05 15.92 10.85L15.92 10.85L15.92 10.85Q16.06 10.63 16.09 10.35L16.09 10.35L13.12 3.22L15.79 3.22L17.37 7.99L18.90 3.22ZM27.09 10.65L27.09 10.65L27.09 10.65Q26.54 10.65 26.12 10.47L26.12 10.47L26.12 10.47Q25.69 10.29 25.38 10.07L25.38 10.07L25.38 10.07Q25.02 9.81 24.77 9.48L24.77 9.48L24.77 12.15L22.25 12.15L22.25 3.22L24.35 3.22L24.71 4.16L24.71 4.16Q24.96 3.85 25.31 3.60L25.31 3.60L25.31 3.60Q25.61 3.39 26.05 3.21L26.05 3.21L26.05 3.21Q26.49 3.04 27.09 3.04L27.09 3.04L27.09 3.04Q27.92 3.04 28.54 3.34L28.54 3.34L28.54 3.34Q29.16 3.64 29.58 4.14L29.58 4.14L29.58 4.14Q30.00 4.65 30.22 5.33L30.22 5.33L30.22 5.33Q30.44 6.01 30.44 6.76L30.44 6.76L30.44 6.76Q30.44 7.52 30.22 8.22L30.22 8.22L30.22 8.22Q30.00 8.92 29.58 9.46L29.58 9.46L29.58 9.46Q29.16 10.01 28.54 10.33L28.54 10.33L28.54 10.33Q27.92 10.65 27.09 10.65ZM26.29 4.94L26.29 4.94L26.29 4.94Q26.04 4.94 25.77 5.02L25.77 5.02L25.77 5.02Q25.49 5.10 25.27 5.30L25.27 5.30L25.27 5.30Q25.05 5.50 24.91 5.87L24.91 5.87L24.91 5.87Q24.77 6.23 24.77 6.80L24.77 6.80L24.77 6.80Q24.77 7.38 24.91 7.75L24.91 7.75L24.91 7.75Q25.05 8.12 25.27 8.34L25.27 8.34L25.27 8.34Q25.49 8.55 25.77 8.64L25.77 8.64L25.77 8.64Q26.04 8.72 26.29 8.72L26.29 8.72L26.29 8.72Q26.54 8.72 26.81 8.64L26.81 8.64L26.81 8.64Q27.08 8.55 27.29 8.34L27.29 8.34L27.29 8.34Q27.51 8.12 27.65 7.75L27.65 7.75L27.65 7.75Q27.79 7.38 27.79 6.80L27.79 6.80L27.79 6.80Q27.79 6.23 27.65 5.87L27.65 5.87L27.65 5.87Q27.51 5.50 27.29 5.30L27.29 5.30L27.29 5.30Q27.08 5.10 26.81 5.02L26.81 5.02L26.81 5.02Q26.54 4.94 26.29 4.94ZM35.60 8.97L35.60 8.97L35.60 8.97Q35.80 8.97 35.99 8.96L35.99 8.96L35.99 8.96Q36.19 8.95 36.34 8.92L36.34 8.92L36.34 8.92Q36.53 8.89 36.69 8.85L36.69 8.85L36.67 10.43L36.67 10.43Q36.43 10.49 36.16 10.54L36.16 10.54L36.16 10.54Q35.92 10.58 35.61 10.62L35.61 10.62L35.61 10.62Q35.29 10.65 34.93 10.65L34.93 10.65L34.93 10.65Q34.23 10.61 33.67 10.36L33.67 10.36L33.67 10.36Q33.43 10.25 33.21 10.08L33.21 10.08L33.21 10.08Q32.98 9.91 32.81 9.66L32.81 9.66L32.81 9.66Q32.63 9.41 32.53 9.08L32.53 9.08L32.53 9.08Q32.42 8.75 32.42 8.30L32.42 8.30L32.42 5.53L31.00 5.53L31.00 3.75L32.47 3.75L32.91 1.46L34.93 1.46L34.93 3.75L36.72 3.75L36.72 5.53L34.96 5.53L34.96 8.33L34.96 8.33Q34.99 8.68 35.15 8.83L35.15 8.83L35.15 8.83Q35.31 8.97 35.60 8.97ZM41.68 3.04L41.68 3.04L41.68 3.04Q42.31 3.04 43.06 3.21L43.06 3.21L43.06 3.21Q43.82 3.39 44.47 3.83L44.47 3.83L44.47 3.83Q45.12 4.27 45.56 5.01L45.56 5.01L45.56 5.01Q45.99 5.75 45.99 6.89L45.99 6.89L45.99 6.89Q45.99 8.02 45.56 8.75L45.56 8.75L45.56 8.75Q45.12 9.48 44.47 9.90L44.47 9.90L44.47 9.90Q43.82 10.32 43.06 10.49L43.06 10.49L43.06 10.49Q42.31 10.65 41.68 10.65L41.68 10.65L41.68 10.65Q41.05 10.65 40.31 10.49L40.31 10.49L40.31 10.49Q39.56 10.32 38.93 9.90L38.93 9.90L38.93 9.90Q38.29 9.48 37.86 8.75L37.86 8.75L37.86 8.75Q37.42 8.02 37.42 6.89L37.42 6.89L37.42 6.89Q37.42 6.13 37.63 5.56L37.63 5.56L37.63 5.56Q37.83 4.98 38.16 4.56L38.16 4.56L38.16 4.56Q38.49 4.13 38.93 3.84L38.93 3.84L38.93 3.84Q39.37 3.54 39.84 3.37L39.84 3.37L39.84 3.37Q40.31 3.19 40.78 3.12L40.78 3.12L40.78 3.12Q41.26 3.04 41.68 3.04ZM41.68 8.90L41.68 8.90L41.68 8.90Q42.45 8.90 42.90 8.46L42.90 8.46L42.90 8.46Q43.34 8.01 43.34 6.89L43.34 6.89L43.34 6.89Q43.34 5.75 42.90 5.27L42.90 5.27L42.90 5.27Q42.46 4.79 41.68 4.79L41.68 4.79L41.68 4.79Q40.89 4.79 40.48 5.27L40.48 5.27L40.48 5.27Q40.07 5.75 40.07 6.89L40.07 6.89L40.07 6.89Q40.07 8.01 40.48 8.46L40.48 8.46L40.48 8.46Q40.89 8.90 41.68 8.90Z"></path></g><!----><!----></svg>